<svg version="1.1" baseProfile="full" xmlns="http://www.w3.org/2000/svg" xmlns:xlink="http://www.w3.org/1999/xlink" xmlns:ev="http://www.w3.org/2001/xml-events" xml:space="preserve" x="0px" y="0px" width="8px" height="26px"  viewBox="0 0 8 26" preserveAspectRatio="none" shape-rendering="geometricPrecision"><path fill="#fff" d="M7.417 6.442c-.01.706-.57 1.27-1.246 1.263l-1.84-.023c-.12 0-.23-.026-.34-.06-.16 1.464-.284 3.082-.31 4.802-.03 2.004.074 4.006.226 5.794.097-.024.197-.04.3-.04l1.84.024c.678.008 1.218.586 1.208 1.292l-.078 5.11c-.01.705-.568 1.27-1.246 1.26l-1.84-.02c-.106-.003-.208-.022-.306-.05-.1.025-.2.043-.307.04L2.25 25.82c-.678-.008-1.218-.587-1.207-1.292 0 0-1.14-5.73-1.046-11.937C.087 6.67 1.36 1.26 1.36 1.26c.012-.706.57-1.27 1.247-1.262L3.834.01c.106.002.208.022.306.05.1-.026.2-.043.307-.042l1.84.023c.678.01 1.218.588 1.207 1.293l-.077 5.11z" class="cls-1"></path></svg>