<svg version="1.1" baseProfile="full" xmlns="http://www.w3.org/2000/svg" xmlns:xlink="http://www.w3.org/1999/xlink" xmlns:ev="http://www.w3.org/2001/xml-events" xml:space="preserve" x="0px" y="0px" width="15px" height="26px"  viewBox="0 0 15 26" preserveAspectRatio="none" shape-rendering="geometricPrecision"><path fill="#fff" d="M7.5 20.564C3.358 20.564 0 17.177 0 13c0-4.178 3.358-7.564 7.5-7.564 4.142 0 7.5 3.386 7.5 7.564 0 4.177-3.358 7.564-7.5 7.564zm0-13.54c-3.268 0-5.927 2.68-5.927 5.976s2.66 5.977 5.927 5.977c3.268 0 5.927-2.68 5.927-5.977 0-3.296-2.66-5.977-5.927-5.977zM6.713 13V9.57h1.574v2.637h1.83v1.586H6.712V13zm-2.65-8.676V0h6.876v4.323c-1.065-.43-2.224-.672-3.44-.672-1.216 0-2.374.244-3.438.674zm6.876 17.353V26H4.06v-4.324c1.064.43 2.222.673 3.438.673 1.216 0 2.375-.244 3.44-.673z" class="cls-1"></path></svg>